<?xml version="1.0" encoding="UTF-8"?>
<svg id="Layer_2" data-name="Layer 2" xmlns="http://www.w3.org/2000/svg" viewBox="0 0 23.87 30.7">
  <defs>
    <style>
      .cls-1 {
        fill: #fff;
      }
    </style>
  </defs>
  <g id="Page_5" data-name="Page 5">
    <g>
      <path class="cls-1" d="M11.93,30.7h0c-.3,0-.58-.12-.78-.34-.46-.49-11.15-12.08-11.15-18.42S5.35,0,11.93,0s11.93,5.35,11.93,11.93S13.17,29.87,12.71,30.36c-.2,.22-.48,.34-.78,.34Zm0-28.56C6.53,2.13,2.13,6.53,2.13,11.93c0,4.21,6.47,12.37,9.8,16.11,3.32-3.74,9.8-11.89,9.8-16.11,0-5.4-4.4-9.8-9.8-9.8Z"/>
      <path class="cls-1" d="M11.93,16.78c-2.96,0-5.37-2.41-5.37-5.37s2.41-5.37,5.37-5.37,5.37,2.41,5.37,5.37-2.41,5.37-5.37,5.37Zm0-8.61c-1.79,0-3.24,1.45-3.24,3.24s1.45,3.24,3.24,3.24,3.24-1.45,3.24-3.24-1.45-3.24-3.24-3.24Z"/>
    </g>
  </g>
</svg>