<?xml version="1.0" encoding="UTF-8"?>
<svg id="Layer_2" data-name="Layer 2" xmlns="http://www.w3.org/2000/svg" viewBox="0 0 31.99 25.13">
  <defs>
    <style>
      .cls-1 {
        fill: #fff;
      }
    </style>
  </defs>
  <g id="Page_5" data-name="Page 5">
    <path class="cls-1" d="M27.37,0H4.62C2.07,0,0,2.07,0,4.62v15.89c0,2.55,2.07,4.62,4.62,4.62H27.37c2.55,0,4.62-2.07,4.62-4.62V4.62c0-2.55-2.07-4.62-4.62-4.62Zm.04,2.29c.19,0,.37,.03,.55,.07l-9.67,10.82c-.59,.66-1.44,1.04-2.33,1.03s-1.73-.39-2.32-1.07L4.11,2.19c.18-.04,.36-.06,.55-.06l22.75,.16Zm2.37,18.22c0,1.33-1.08,2.41-2.41,2.41H4.62c-1.33,0-2.41-1.08-2.41-2.41V4.62c0-.32,.06-.63,.18-.91L12.01,14.62c1.01,1.14,2.46,1.8,3.98,1.8s2.97-.66,3.98-1.8L29.6,3.7c.12,.28,.18,.59,.18,.91v15.89Z"/>
  </g>
</svg>