<svg xmlns="http://www.w3.org/2000/svg" width="92" height="93" viewBox="0 0 92 93" fill="none">
<path d="M46.0006 8.5127C25.0318 8.5127 8.01367 25.5308 8.01367 46.4996C8.01367 67.4684 25.0318 84.4865 46.0006 84.4865C66.9693 84.4865 83.9875 67.4684 83.9875 46.4996C83.9875 25.5308 66.9693 8.5127 46.0006 8.5127ZM35.7061 62.796L22.0688 49.1587C20.5873 47.6772 20.5873 45.284 22.0688 43.8025C23.5503 42.321 25.9435 42.321 27.425 43.8025L38.4032 54.7427L64.5382 28.6078C66.0197 27.1263 68.4128 27.1263 69.8943 28.6078C71.3758 30.0893 71.3758 32.4824 69.8943 33.9639L41.0623 62.796C39.6188 64.2775 37.1876 64.2775 35.7061 62.796Z" fill="#5D9C59"/>
</svg>