<?xml version="1.0" encoding="UTF-8"?>
<svg id="Layer_2" data-name="Layer 2" xmlns="http://www.w3.org/2000/svg" viewBox="0 0 37.5 37.5">
  <defs>
    <style>
      .cls-1 {
        fill: #fff;
      }

      .cls-2 {
        fill: #a4be7b;
      }
    </style>
  </defs>
  <g id="Page_5" data-name="Page 5">
    <g>
      <circle class="cls-2" cx="18.75" cy="18.75" r="18.75"/>
      <g>
        <path class="cls-1" d="M24.57,11.66c-.71,0-1.29,.58-1.29,1.29s.58,1.29,1.29,1.29,1.29-.58,1.29-1.29-.58-1.29-1.29-1.29Z"/>
        <path class="cls-1" d="M18.84,13.31c-2.99,0-5.41,2.43-5.41,5.41s2.43,5.41,5.41,5.41,5.41-2.43,5.41-5.41-2.43-5.41-5.41-5.41Zm0,8.88c-1.91,0-3.47-1.56-3.47-3.47s1.56-3.47,3.47-3.47,3.47,1.56,3.47,3.47-1.56,3.47-3.47,3.47Z"/>
        <path class="cls-1" d="M23.14,29.72H14.36c-3.64,0-6.6-2.96-6.6-6.6V14.34c0-3.64,2.96-6.6,6.6-6.6h8.78c3.64,0,6.6,2.96,6.6,6.6v8.78c0,3.64-2.96,6.6-6.6,6.6ZM14.36,9.8c-2.5,0-4.54,2.03-4.54,4.54v8.78c0,2.5,2.03,4.54,4.54,4.54h8.78c2.5,0,4.54-2.03,4.54-4.54V14.34c0-2.5-2.03-4.54-4.54-4.54H14.36Z"/>
      </g>
    </g>
  </g>
</svg>