<svg xmlns="http://www.w3.org/2000/svg" width="44" height="44" viewBox="0 0 44 44" fill="none">
  <path d="M28.4169 25.6668H26.9685L26.4552 25.1718C28.6552 22.6052 29.7919 19.1035 29.1685 15.3818C28.3069 10.2852 24.0535 6.21517 18.9202 5.59184C11.1652 4.6385 4.63852 11.1652 5.59185 18.9202C6.21519 24.0535 10.2852 28.3068 15.3819 29.1685C19.1035 29.7918 22.6052 28.6552 25.1719 26.4552L25.6669 26.9685V28.4168L33.4585 36.2085C34.2102 36.9602 35.4385 36.9602 36.1902 36.2085C36.9419 35.4568 36.9419 34.2285 36.1902 33.4768L28.4169 25.6668ZM17.4169 25.6668C12.8519 25.6668 9.16685 21.9818 9.16685 17.4168C9.16685 12.8518 12.8519 9.16684 17.4169 9.16684C21.9819 9.16684 25.6669 12.8518 25.6669 17.4168C25.6669 21.9818 21.9819 25.6668 17.4169 25.6668Z" fill="#F7F7F7"/>
</svg>