<svg xmlns="http://www.w3.org/2000/svg" width="92" height="83" viewBox="0 0 92 83" fill="none">
<path d="M9.98768 82.1698H82.0129C89.378 82.1698 93.9693 74.183 90.2867 67.8222L54.2741 5.60116C50.5915 -0.759632 41.409 -0.759632 37.7265 5.60116L1.71386 67.8222C-1.9687 74.183 2.62255 82.1698 9.98768 82.1698ZM46.0003 48.692C43.3699 48.692 41.2177 46.5398 41.2177 43.9094V34.3443C41.2177 31.7139 43.3699 29.5617 46.0003 29.5617C48.6307 29.5617 50.7828 31.7139 50.7828 34.3443V43.9094C50.7828 46.5398 48.6307 48.692 46.0003 48.692ZM50.7828 67.8222H41.2177V58.2571H50.7828V67.8222Z" fill="#FF0000"/>
</svg>